/* XPM */
static char *_51c4d13d4664d98a681fe7ff95d7e75Wu0v6XG7WOy7qQ64[] = {
/* columns rows colors chars-per-pixel */
"50 50 119 2 ",
"   c #4E2B24",
".  c #493E3A",
"X  c #0F5E5E",
"o  c #135050",
"O  c #275A59",
"+  c #2F5D5C",
"@  c #0E6565",
"#  c #006F6F",
"$  c #0E6A6A",
"%  c #146363",
"&  c #1C6465",
"*  c #166B6B",
"=  c #027272",
"-  c #0F7474",
";  c #127374",
":  c #1A7373",
">  c #246D6D",
",  c #2B6C6B",
"<  c #346261",
"1  c #306D6D",
"2  c #3A6969",
"3  c #247272",
"4  c #2D7170",
"5  c #445553",
"6  c #475E5C",
"7  c #4C5D5A",
"8  c #5D5A57",
"9  c #535D5A",
"0  c #675A55",
"q  c #705651",
"w  c #785A53",
"e  c #50615F",
"r  c #69615D",
"t  c #456564",
"y  c #456968",
"u  c #6E6560",
"i  c #7D6963",
"p  c #924F3F",
"a  c #84584F",
"s  c #995545",
"d  c #995E52",
"f  c #AD5142",
"g  c #A7594A",
"h  c #AD5E4B",
"j  c #B35746",
"k  c #BA5949",
"l  c #A05F52",
"z  c #8A655C",
"x  c #986053",
"c  c #966358",
"v  c #B4614E",
"b  c #BA624E",
"n  c #AE6655",
"m  c #AA6A5B",
"M  c #B46452",
"N  c #BB6552",
"B  c #B46857",
"V  c #BD6955",
"C  c #B36959",
"Z  c #BB6C5A",
"A  c #C15D4C",
"S  c #C5624E",
"D  c #CB6551",
"F  c #C36A55",
"G  c #C96B56",
"H  c #CB6F59",
"J  c #D16754",
"K  c #DD6653",
"L  c #D26B56",
"P  c #DD6D57",
"I  c #D36E5A",
"U  c #C3725D",
"Y  c #CD715B",
"T  c #D2725C",
"R  c #DB745D",
"E  c #D9785F",
"W  c #E66A56",
"Q  c #E86B57",
"!  c #E66D59",
"~  c #ED6F59",
"^  c #E3745D",
"/  c #ED735C",
"(  c #F1755E",
")  c #C27462",
"_  c #E37B63",
"`  c #EB7D64",
"'  c #F47B62",
"]  c #E38066",
"[  c #EC8067",
"{  c #E3836A",
"}  c #EC856B",
"|  c #E5886D",
" . c #ED8A6E",
".. c #FA8167",
"X. c #F48469",
"o. c #FB856A",
"O. c #F4886D",
"+. c #FE896D",
"@. c #EC8E72",
"#. c #F48D72",
"$. c #FB8C71",
"%. c #EB9374",
"&. c #EE9A7B",
"*. c #F39275",
"=. c #FD9376",
"-. c #F3977A",
";. c #FB9679",
":. c #F39B7C",
">. c #FB9D7D",
",. c #F2A483",
"<. c #FDA383",
"1. c #F5A986",
"2. c #F6AC89",
"3. c #FDAC8A",
"4. c #FCB28E",
"5. c #FDB591",
"6. c #FEBC96",
"7. c #FEBE99",
"8. c #FDC19D",
/* pixels */
"- - - - - - - - - - - - - - - - - - - - - - - - - - - - - - - - - - - - - - - - - - - - - - - - - - ",
"- - - - - - - - - - - - - - - - - - - - - - - - - - - - - - - - - - - - - - - - - - - - - ; - - - - ",
"- - - - - - - - - - - - - - - - - - - ; - - - - - - - - - - - - - - - - - - - - - - - - - - - - - - ",
"- - - - - - - - - - - - - - - - - - - - - - - - - - - - - - - - - - - - - - - - - - - - - - - - - - ",
"- - - - ; - - - - - - - - - - - - - - - - - - - - - - - - - - - - - - - - - - - - - - - - - - - - - ",
"- - - - - - - - - - - - - - - - - - - - - - - - - - - - - - - - - - - - - - - - - - - - - - - - - - ",
"- - - - - - - - - - - - - - - - - - - - - - - - - - - - - - ; - - - - - - - - - - - - - - - - - - - ",
"- - - - - - - - - - - - - - - - - - - - - - - - - - - - - - - - - - - - - - - - - - - - - - - - - - ",
"- - - - - - - ; - - - - - - - - - - - - - - - ; - - - - - - - - - - - - - - - - - - - - - - - - - - ",
"- - - - - - - - - - - - - - - - - - - - - : & 9 7 @ - - - - - - - - - - - - - - - - - - - - - - - - ",
"- - - - - - - - - - - - - - - ; - - - - t n %.>.<.| c , - - - - - - - - - - - - - - - - - - - - - - ",
"- - - - - - - - - - - - - - - ; - - : 6 { 4.7.8.7.6.3.) + < 2 3 ; - - - - - - - - - - - - - - - - - ",
"- - - - - - - - - - - - - - ; = r m ) Z ] 4.6.6.7.7.7.3.g X.` Y z : ; - - - - - - - - - - - - - - - ",
"- - - - - - - - - - - - - - : d ;.4.7.4.E E 3.6.6.7.7.5.E X.+.+.+.M > - - - - - - - - - - - - - - - ",
"- - - - - - - - - - - - - - e #.5.7.7.7.3.R E 4.6.6.4.6.*._ +.=.$.o.z - - - - - - - - - - - - - - - ",
"- - - - - - - - - - - - - ; m >.8.6.6.7.8.>.H } :.&.,.&. .I $.$.+.+.R * - - - - - - - - - - - - - - ",
"- - - - - - - - - - - - - $ n %.6.8.7.5.%.%.| j *.8.8.8.4.h ] ^ ( o.+.o : - - - - - - - - - - - - - ",
"- - - - - - - - - - - - t v ] ] *.5.5.&.8.8.8.O.H >.:.:.:.] o.+...( o.p r = - - - - - - - - - - - - ",
"- - - - - - - - - - - 3 ] 5.6.:.C } -.4.8.>.%. .A P >.8.8.] L ..o.o./ v X.e - - - - - - - - - ; - - ",
"- - - - - - - - - - = r &.8.8.8.3.T S <.2.:.8.5.>.F 4.8.8.>.b ..( ( ' F o.Y 3 ; - - - - - - - - - - ",
"- - - - - - - - - - = B 4.8.8.8.1.&.] H } 6.5.8.4.] | 8.4.>.U *.+.' ' k +.+.7 - - - - - - - - - - - ",
"- - - - - - - - - - = V >.8.6.>.1.8.4.R F >.8.8.8.:.V >.8.>.] o.+.+.! S ( ;.x ; - - - - - - - - - - ",
"- - - - - - - - - - = w  .>.8.:.5.8.&.>.} Y >.8.8.4.] | 8.8.] [ +.+.^ E [ +.Z = - - - - - - - - - - ",
"- - - - - - - - - - - 3 ] =.>.&.6.1.2.8.4.] T 6.8.6.+.H 4.4.] [ +.+._ T ..' Z # - - - - - - - - - - ",
"- - - - - - - - - - - - z V ] [ 6.:.5.8.8.4.] ] 4.6.>.] &.8.|  .+.+.T / ..( l = - - - - - - - - - - ",
"- - - - - - - - - - - : ] o.] D X.*.6.8.8.8.>.G *.6.&.] ] &.] ] +.+.F o.( ..r - - - - - - - - - - - ",
"- - - - - - - - - - - 3 F >.>.[ b L *.4.8.6.8.*.G *.>.%.V 5. .] ( +.F +./ P 2 - - - ; - - - - - - - ",
"- - - - - - - - - - - : V >.8.%.*.P S  .>.4.8.8.] D 6.>.b 3.%.L o.( F +.~ f 3 ; - - ; - - - - - - - ",
"- - - - - - - - - - - - z *.8.&.5.&.*.V ] o.>.:.:.F >.>.] &.&.] +./ T +.Q h 2 - - - - - - - - - - - ",
"- - - - - - - - - - - - * V >.>.>.2.6.>.] G =.[ 8.%.] >. .]  .G +.( E +.j / 5 - - - - ; - - - - - - ",
"- - - - - - - - - - - - - 4 n | %.>.:.8.>.%.F W +.>.h O. .] ..] +.[ ^ [ S ( 5 - - - - - - - - - - - ",
"- - - - - - - - - - - - - - - r h D  .3.8.8.*.f O.+. .] o.F X.S +.T ! G W J 1 - - - - - - - - - - - ",
"- - - - - - - - - - - - - - - i o.%.V S | >.&.>.]  .+.H o.N o.H +.h D ] K 8 - - - - - - - - - - - - ",
"- - - - - - - - - - - - - - - y | >.:.%.] F ] >.%.v X.] E L [ H X.F S / 0 : - - - - - - - - - - - - ",
"- - - - - - - - - - - - - - - - u ] %.:.2.:.] b O.X.V +.b ] Y H T M ^ q - - - - - - - - - - - - - - ",
"- - - - - - - - - - - - - - - - - t B ] | 4.:.| F ] [ T [ ] h E p T a : - - - - - - - - - - - - - - ",
"- - - - - - - ; - - - - - - - - - - ; 2 8 a F ] *.] v H ] H p U s Z ] # - - - - - - - - - - - - - - ",
"- - - - - - - - - - - - - - - - - - - - - = # % s L ] G p h p   Z @.B 3 - - - - - - - - - - - - - - ",
"- - - - - - - - - - - - - - - - - - - - - - - - U +.] v M . O X < < 3 - - - - - - - - - - - - - - - ",
"- - - - - - - - - - - - - - - - - - - - - - - ; w +.O.V < : ; ; - - - - - - - - - - - - - - - - - - ",
"- - - - - - - - - - - - - - - - - - - - - - - - : 7 < : - - - - - - - - - - - - - - - - - - - - - - ",
"- - - - - - - - - - - - - - - - - - - - - - - - - - - - - - - - - - - - - - - - - - - - - - - - - - ",
"- - - - - - - - - - - - - - - - - - - - - - - - - - - - - - - - - - - - - - - - - - - - - - - - - - ",
"- - - - - - - - - - - - - - - - - - - - - - - - - - - - - - - - - - - - - - - - - - - - - - - - - - ",
"- - - - - - - - - - - - - - - - - - - - - - - - - - - - - - - - - - - - - - - - - - - - - - - - - - ",
"- - - - - - - - - - - - - - - - - - - - - - - - - - - - - - - - - - - - - - - - - - - - - - - - - - ",
"- - - - - - - - - - - - - - - - - - - - - - - - - - - - - - - - - - - - - - - - - - - - - - - - - - ",
"- - - - - - - - - - - - - - - - - - - - - - - - - - - - - - - - - - - - - - - - - - - - - - - - - - ",
"- - - - - - - - - - - - - - - - - - - - - - - - - - - - - - - - - - - - - - - - - - - - - - - - - - ",
"- - - - - - - - - - - - - - - - - - - - - - - - - - - - - - - - - - - - - - - - - - - - - - - - - - "
};
