/* XPM */
static char *item1690471270[] = {
/* columns rows colors chars-per-pixel */
"50 50 194 2 ",
"   c #38384C",
".  c #0F7474",
"X  c #127474",
"o  c #1C7676",
"O  c #237777",
"+  c #2C7979",
"@  c #367A79",
"#  c #545462",
"$  c #447D7B",
"%  c #4A7C7A",
"&  c #537D78",
"*  c #78796D",
"=  c #657D72",
"-  c #C6571D",
";  c #D65B1F",
":  c #C75D21",
">  c #C45A2D",
",  c #C86325",
"<  c #C76429",
"1  c #C76A29",
"2  c #C86D2C",
"3  c #C8712E",
"4  c #C46738",
"5  c #C87431",
"6  c #F16622",
"7  c #F16823",
"8  c #ED7028",
"9  c #F47C32",
"0  c #F27836",
"q  c #9C7A58",
"w  c #B3754B",
"e  c #AF7354",
"r  c #A67659",
"t  c #867964",
"y  c #957A67",
"u  c #9A7E72",
"i  c #BB7965",
"p  c #C96B41",
"a  c #C3794D",
"s  c #D17859",
"d  c #E57A40",
"f  c #388C7E",
"g  c #44877D",
"h  c #57827D",
"j  c #668576",
"k  c #778679",
"l  c #73847C",
"z  c #6B9474",
"x  c #719476",
"c  c #7EA27C",
"v  c #F48335",
"b  c #F38438",
"n  c #F4893A",
"m  c #F4913D",
"M  c #A78757",
"N  c #9CA15E",
"B  c #A4A457",
"V  c #A4A15B",
"C  c #83996C",
"Z  c #989E64",
"A  c #8A8779",
"S  c #8D927F",
"D  c #AB8267",
"F  c #A88C77",
"G  c #A7967A",
"H  c #B99575",
"J  c #96A063",
"K  c #A2A362",
"L  c #A7A967",
"P  c #B4B566",
"I  c #AAA27E",
"U  c #B6A277",
"Y  c #A5BA7F",
"T  c #AABC7D",
"R  c #B6BD76",
"E  c #B3BF79",
"W  c #CF8559",
"Q  c #DB9559",
"!  c #ED8A4E",
"~  c #F58B44",
"^  c #F48C4A",
"/  c #F69D43",
"(  c #F7934E",
")  c #E78857",
"_  c #ED9E56",
"`  c #E39D5C",
"'  c #F69A5A",
"]  c #C9B54E",
"[  c #F5A159",
"{  c #F8A15D",
"}  c #CB8B61",
"|  c #C58368",
" . c #CF926F",
".. c #DA9C66",
"X. c #C79B75",
"o. c #F09475",
"O. c #C7A16E",
"+. c #CDB16C",
"@. c #DDA475",
"#. c #EBA36D",
"$. c #F8AA66",
"%. c #F9B46F",
"&. c #E3AB74",
"*. c #E2AD79",
"=. c #F7AE77",
"-. c #FAB672",
";. c #FABA76",
":. c #F6B67C",
">. c #BEC36F",
",. c #B5C174",
"<. c #BDC273",
"1. c #B5C079",
"2. c #B9C178",
"3. c #DBCC5C",
"4. c #EED34D",
"5. c #C4C46E",
"6. c #C8C56D",
"7. c #CFC869",
"8. c #D5CA63",
"9. c #C2C371",
"0. c #048A82",
"q. c #02938A",
"w. c #07988F",
"e. c #049C93",
"r. c #3D8685",
"t. c #28948B",
"y. c #04A69B",
"u. c #0BA59B",
"i. c #13A79A",
"p. c #1BA79A",
"a. c #1AA89B",
"s. c #29A596",
"d. c #23A79A",
"f. c #2DA89A",
"g. c #3AA695",
"h. c #3CAA96",
"j. c #34A999",
"k. c #39A998",
"l. c #488B89",
"z. c #5B8681",
"x. c #4F9996",
"c. c #569B98",
"v. c #639C8B",
"b. c #789686",
"n. c #44A795",
"m. c #4CAA95",
"M. c #5DA290",
"N. c #55AC94",
"B. c #5EAD92",
"V. c #67AF8F",
"C. c #6CAF8F",
"Z. c #6EB08F",
"A. c #72B18E",
"S. c #7BB28E",
"D. c #64AE91",
"F. c #69AF90",
"G. c #79A194",
"H. c #6EB090",
"J. c #78B191",
"K. c #67AAA7",
"L. c #72B4AF",
"P. c #7BB8B5",
"I. c #0FCFC8",
"U. c #3AC5C0",
"Y. c #8A9182",
"T. c #9C9C87",
"R. c #A19682",
"E. c #8DAC87",
"W. c #9CA586",
"Q. c #8CB687",
"!. c #86B489",
"~. c #8CB58A",
"^. c #93B685",
"/. c #9CB983",
"(. c #98B886",
"). c #B6A48F",
"_. c #A4BB81",
"`. c #A9BC80",
"'. c #89BCB3",
"]. c #D6AD80",
"[. c #F2B58E",
"{. c #89C6B1",
"}. c #F6C084",
"|. c #C5C0BE",
" X c #F8CDBA",
".X c #8DC4C0",
"XX c #AADBD7",
"oX c #CFCFD1",
"OX c #E6DFDD",
"+X c #DFDFE0",
"@X c #D3EBE8",
"#X c #FBEBE0",
"$X c #E2F1F0",
"%X c #FDFDFD",
/* pixels */
". . . . . . . . . . . . . . . . . . . . . . . . . . . . . . . . . . . . . . . . . . . . . . . . . . ",
". . . . . . . . . . . . . . . . . . . . . . . . . . . . . . . . . . . . . . . . . . . . . . . . . . ",
". . . . . . . . . . . . . . . . . . . . . . . . . . . . . . . . . . . . . . . . . . . . . . . . . . ",
". . . . . . . . . . . . . . . . . . . . . . . . . . . . . . . . . . . . . . . . . . . . . . . . . . ",
". . . . . . . . . . . . . . . . . . . . . . . . . . . . . . . . . . . . . . . . . . . . . . . . . . ",
". . . . . . . . . . . . . . . . . . . . . . . . . . . . . . . . . . . . . . . . . . . . . . . . . . ",
". . . . . . . . . . . . . . . . . . . . . . . . . . . . . . . . . . . . . . . . . . . . . . . . . . ",
". . . . . . . . . . . . . . . . . . . . . . . . . . . . . . . . . . . . . . . . . . . . . . . . . . ",
". . . . . . . . . . . . . . . . . . . . . . . . . . . . . . . . . . . . . . . . . . . . . . . . . . ",
". . . . . . . . . . . . . . . . . . . . . . . . . . . . . . . . . . . . . . . . . . . . . . . . . . ",
". . . . . . . . . . . . . . . . . . . . . . . . . . . . . . . . . . . . . . . . . . . . . . . . . . ",
". . . . . . . . . . . . . . . . . . . . . . . X . . . . . . . . . . . . . . . . . . . . . . . . . . ",
". . . . . . . . . . . . . . . . . . . . X X X g z.b.k A T.R.].X.X.G $ . . . . . . . . . . . . . . . ",
". . . . . . . l.x.. . . . . . . . . X S X.&.}.{ { ;.;.' $.-.%.' $.;.@.. . . . . . . . . . . . . . . ",
". . . . . . . M.XXl.. . . . . . . b.*.%.( [ ' 0 ~ ( ~ 9 b 9 0 ~ -.-.:.o . . . . . . . . . . . . . . ",
". . . . . + l.X l.. . . . . . + F { 0 b W } H G R.G G X.D Q b v ~ $.#.X . . . . . . . . . . . . . . ",
". . . . . K.@XL.. . . . . X . H | S V.e.y.y.m.A.H.n.y.y.y.y.n.H 9 ^ *.. . . . . . . . . . . . . . . ",
". . . . . c.XXK.. . . . . @ F b.y.s.~.+.9.<.1.`.`.1.>.2.j.y.y.y.G n &.. . . . . . . . . . . . . . . ",
". . . . . . . . . . . . . T.n.j.1.9.~.j.y.y.y.y.y.y.y.B.6.f.y.y.i.d X.X . . . . X X . . . . . . . . ",
". . . . . + x.l.o . . X b.~.!.6.H.u.S.`.9.1.<.5.1.H.y.y.B.6.Q.N.d.Q | X . . . . X & T.. . . . . . . ",
". . . . . P.$X@XK.X . j W.7.,.D.1.5._.D.i.y.y.y.m.`.5.A.y.p.!.1.R Q } X . . . X l #.=.+ . . . . . . ",
". . . . . .X%X%X.XX & ` / E.3.1.m.y.Z.1.9.>.5.5.<.Q.k.T 6./.f.y.y.G ) X . . O O.{ $.-.S . . . . . . ",
". . . . . r.L.'.l.% ..=.[.` Y Y 2.5._.B.y.y.y.y.d.Q.>.1.B.S.2.<._.R 9 l O m.'.[ $.;.{ H . . . . . . ",
". . . . . . + X h .. X%X%X#XI 8.D._.<.,.>.2._.H.u.y.y.N.1.5.T D.S.J.M.G.U.I.{.%.{ ! ' X.. . . . . . ",
". . . . . . o.s ` / |.# +X%X[.Y 7.V.y.y.y.i.A._.9.<.(.k.y.y.V.1.<.>.1./.S.~.P 8 v n ~ ].. . . . . . ",
". . . . . o  .6 v / ).  oX%Xo.I 2.f.^.E T S.p.y.y.d.~.<.<.9._.!.S.S.Y 7.4.4.8.v n n 9 ) + . . . . . ",
". . . . . o i 7 v / [.OX%XOX9 U 8.9.Q.h.B./.<.6.5.`.!.m.y.p.F.~././.C C.d.g.Y v 7 7 6 d + . . . . . ",
". . . . . o u i _ / / m 0 n m O.<.y.y.y.y.y.y.y.a.H.(.1.6.6.5.<.,.L L N P ] P m n v b ' . . . . . . ",
". . . . . . . X H / / / / / / O.5.6.<.^.H.p.y.y.y.y.y.y.y.y.y.e.f z N N M b.v.e ; 6 6 ) X . . . . . ",
". . . . . . . . @ @./ / / / / U 9.y.h.!.`.<.9.9.<.1.1.`._.T <.K N x f M 5 h X = i > ; s . . . . . . ",
". . . . . . . . . @ @./ / m / W.8.Y N.y.y.y.y.y.y.j.Z.S.A.V.s.f 0.x V 5 3 @ . . . % * & . . . . . . ",
". . . . . . . . . . O O./ / / E.T H.1.9.Q.i.y.y.y.y.y.y.y.y.g z V C q 1 | X . . . . . . . . . . . . ",
". . . . . . . . . . . . F _ ` <.6.T N.i.^.9.5.<.9.9.9.5.,.L J z J B 3 - y . . . . . . . . . . . . . ",
". . . . . . . . . . . . . h W.2.y.D.E 5./.n.w.q.q.q.q.q.f g C N z w : w $ . . . . . . . . . . . . . ",
". . . . . . . . . . . . . . X l.Y.t.w.w.c K K Z J J N N V Z x t 5 1 2 A . . . . . . . . . . . . . . ",
". . . . . . . . . . . . . . . . Y.4 r t t j j j = k t t r w < , < a A X . . . . . . . . . . . . . . ",
". . . . . . . . . . . . . . . . . t p 1 , - 2 3 - 2 1 1 3 2 4 D * o . . . . . . . . . . . . . . . . ",
". . . . . . . . . . . . . . . . . . % y a 4 , 2 - 1 p e D * @ o . . . . . . . . . . . . . . . . . . ",
". . . . . . . . . . . . . . . . . . . . . + l & k z.O . . . . . . . . . . . . . . . . . . . . . . . ",
". . . . . . . . . . . . . . . . . . . . X X . . . . . . . . . . . . . . . . . . . . . . . . . . . . ",
". . . . . . . . . . . . . . . . . . . . . . . . . . . . . . . . . . . . . . . . . . . . . . . . . . ",
". . . . . . . . . . . . . . . . . . . . . . . . . . . . . . . . . . . . . . . . . . . . . . . . . . ",
". . . . . . . . . . . . . . . . . . . . . . . . . . . . . . . . . . . . . . . . . . . . . . . . . . ",
". . . . . . . . . . . . . . . . . . . . . . . . . . . . . . . . . . . . . . . . . . . . . . . . . . ",
". . . . . . . . . . . . . . . . . . . . . . . . . . . . . . . . . . . . . . . . . . . . . . . . . . ",
". . . . . . . . . . . . . . . . . . . . . . . . . . . . . . . . . . . . . . . . . . . . . . . . . . ",
". . . . . . . . . . . . . . . . . . . . . . . . . . . . . . . . . . . . . . . . . . . . . . . . . . ",
". . . . . . . . . . . . . . . . . . . . . . . . . . . . . . . . . . . . . . . . . . . . . . . . . . ",
". . . . . . . . . . . . . . . . . . . . . . . . . . . . . . . . . . . . . . . . . . . . . . . . . . ",
". . . . . . . . . . . . . . . . . . . . . . . . . . . . . . . . . . . . . . . . . . . . . . . . . . "
};
