/* XPM */
static char *e7446b6d383d4fb99497b031446adf3dreTdyv7S961Fsx2D[] = {
/* columns rows colors chars-per-pixel */
"50 50 118 2 ",
"   c #272727",
".  c #272B2E",
"X  c #272E35",
"o  c #355E7E",
"O  c #0F7474",
"+  c #137474",
"@  c #237575",
"#  c #2D7777",
"$  c #2D7878",
"%  c #327676",
"&  c #3D7675",
"*  c #347979",
"=  c #3B7979",
"-  c #416F6E",
";  c #546F6E",
":  c #5B6F6E",
">  c #4E706F",
",  c #466C75",
"<  c #4D6E75",
"1  c #506276",
"2  c #556E74",
"3  c #447373",
"4  c #4C7373",
"5  c #447877",
"6  c #437A7A",
"7  c #497B7B",
"8  c #537274",
"9  c #5D7475",
"0  c #55727A",
"q  c #5B727D",
"w  c #557B7A",
"e  c #5C7A7C",
"r  c #677F7E",
"t  c gray45",
"y  c #366183",
"u  c #376589",
"i  c #4F6E8C",
"p  c #526F82",
"a  c #4D7289",
"s  c #547485",
"d  c #5D7682",
"f  c #55748B",
"g  c #5A768A",
"h  c #5C798C",
"j  c #4F7693",
"k  c #4D769A",
"l  c #547694",
"z  c #5A7691",
"x  c #557897",
"c  c #5B7A96",
"v  c #51779F",
"b  c #547B9D",
"n  c #5C7D9B",
"m  c #62758A",
"M  c #627D93",
"N  c #627F9F",
"B  c #4D7DA4",
"V  c #437FAD",
"C  c #4D7DA9",
"Z  c #527CA2",
"A  c #517DAB",
"S  c #758483",
"D  c #7F8B8A",
"F  c #67849F",
"G  c #73899F",
"H  c #4180AF",
"J  c #4C81AD",
"K  c #5281A9",
"L  c #4C84B2",
"P  c #4E83B8",
"I  c #4589BB",
"U  c #4A8ABC",
"Y  c #6282A2",
"T  c #6D87A2",
"R  c #758AA1",
"E  c #7D8FA3",
"W  c #498EC3",
"Q  c #4B8FCC",
"!  c #4890C6",
"~  c #4793CA",
"^  c #4993CB",
"/  c #868484",
"(  c #959493",
")  c #9A9897",
"_  c #979D9D",
"`  c #9DA09F",
"'  c #8291A4",
"]  c #8D97A4",
"[  c #929AA6",
"{  c #969EAA",
"}  c #AEB0AF",
"|  c #B2B3B2",
" . c #B2B5B9",
".. c #BDBDBE",
"X. c #C0BFBF",
"o. c #BFC0C1",
"O. c #C2C2C1",
"+. c #CDCDCC",
"@. c #D3D2D2",
"#. c #DCDBDB",
"$. c #E1E0E0",
"%. c #E2E2E1",
"&. c #E3E3E2",
"*. c #E5E5E3",
"=. c #E8E7E7",
"-. c #EAEBEA",
";. c #EDEDEC",
":. c #F0EFEF",
">. c #F3F3F3",
",. c #F4F4F4",
"<. c #F7F7F6",
"1. c #F7F8F7",
"2. c #F8F8F8",
"3. c gray98",
"4. c #FBFBFB",
"5. c #FCFDFC",
"6. c #FDFDFC",
"7. c #FCFDFD",
/* pixels */
"O O O O O O O O O O O O O O O O O O O O O O O O O O O O O O O O O O O O O O O O O O O O O O O O O O ",
"O O O O O O O O O O O O O O O O O O O O O O O O O O O O O O O O O O O O O O O O O O O O O O O O O O ",
"O O O O O O O O O O O O O O O O O O O O O O O O O O O O O O O O O O O O O O O O O O O O O O O O O O ",
"O O O O O O O O O O O O O O O O O O O O O O O O O O O O O O O O O O O O O O O O O O O O O O O O O O ",
"O O O O O O O O O O O O O O O O O O O O O O O O O O O O O O O O O O O O O O O O O O O O O O O O O O ",
"O O O O O O O O O O O O O O O O O O O O O O O O O O O O O O O O O O O O O O O O O O O O O O O O O O ",
"O O O O O O O O O O O O O O O O O + O + O O O O O O O O O O O O O O O O O O O O O O O O O O O O O O ",
"O O O O O O O O O + 3 s F T j s h , 8 3 5 O O O O O O O O O O O O O O O O O O O O O O O O O O O O O ",
"O O O O O O O O O 4 J ~ ~ ~ ~ ~ ~ ~ ! U J n s 4 & O O O O O O O O O O O O O O O O O O O O O O O O O ",
"O O O O O O O O O M ~ ^ ~ ^ ~ ~ ~ ~ ~ ~ ! V I U K s 4 $ O O O O O O O O O O O O O O O O O O O O O O ",
"O O O O O O O O + b ^ ! I W ^ ^ ~ ~ ~ ~ o t #.V ~ ~ U h 3 O O O O O O a < 7 O O O O O O O O O O O O ",
"O O O O O O O O + n Y o.@.+. .E J ! ~ ^ X   ( u ~ ~ ! ~ L q # O O O w A Q f O O O O O O O O O O O O ",
"O O O O O O O O O q @.7.7.7.7.7.=. .Y ! y   . H ~ ^ ^ ~ ~ ! s % O & A Q Q Z O O O O O O O O O O O O ",
"O O O O O O O O O : -.7.7.7.7.7.7.7.2.O.F H I ^ ^ ~ ^ ^ ~ ~ ^ f = p Q Q Q k O O O O O O O O O O O O ",
"O O O O O O O O O 3 $.7.7.7.7.7.7.#.7.6.1. .K ^ ^ ~ ~ ^ ~ ~ ^ U m Q Q Q Q Y O O O O O O O O O O O O ",
"O O O O O O O O O @ } 7.7.7.7.7.1.) 7.7.7.7.$.G ! ^ ^ ~ ~ ~ ~ J Q ^ ^ Q Q z O O O O O O O O O O O O ",
"O O O O O O O O O O e :.6.6.6.6.O.( *.7.7.7.7.>.] W ^ ! ^ ~ ~ ~ Q Q Q Q Q 0 O O O O O O O O O O O O ",
"O O O O O O O O O + @ | :.X.O.O.=.,.6.7.7.7.7.7.1.[ ! ^ ~ ~ ~ ~ ~ Q Q Q l * + + O O O O O O O O O O ",
"O O O O O O O O O O O & *.6.7.7.7.7.7.7.7.7.7.7.7.>.G ^ ^ ~ ^ ^ ~ ~ Q Z l 4 + + O O O O O O O O O O ",
"O O O O O O O O O O O O / ,.7.6.7.7.7.7.7.7.7.7.7.7.#.L ~ ^ ^ ~ Q W i U ^ L e + O O O O O O O O O O ",
"O O O O O O O O O O O O @ ` 2.7.7.7.7.7.7.7.7.7.5.5.6.{ ^ ^ ~ ^ ~ W Z ^ ^ ^ U e O O O O O O O O O O ",
"O O O O O O O O O O O O + # } 7.7.7.7.7.7.7.7.7.5.6.6.@.U ^ ~ ^ ~ ~ k ~ ^ ~ ~ L w O O O O O O O O O ",
"O O O O O O O O O O O O O O 5 +.7.7.7.7.7.7.7.7.5.5.6.>.K ^ ^ ^ ~ ~ k ^ ^ Q ~ ~ f + O O O O O O O O ",
"O O O O O O O O O O O O O O O 4 #.6.7.7.7.7.7.7.5.5.6.1.F ^ ^ ^ ~ ~ j b F F a a q 6 O O O O O O O O ",
"O O O O O O O O O O O O O O O O r *.7.7.7.7.7.7.5.5.7.7.T ~ ~ ~ ~ ~ g * O O O O O O O O O O O O O O ",
"O O O O O O O O O O O O O O O O + S :.6.7.7.7.7.5.5.7.2.b ~ ~ ^ ~ ~ 0 + O O O O O O O O O O O O O O ",
"O O O O O O O O O O O O O O O O + * ) 6.7.7.7.7.5.5.5.@.U ~ ^ ^ ~ U - O O O O O O O O O O O O O O O ",
"O O O O O O O O O O O O O O O O % g P +.7.7.7.7.5.5.7.' ^ ^ ^ ~ ~ l # O O O O O O O O O O O O O O O ",
"O O O O O O O O O O O O O O O O d Q Q ' 7.7.7.7.7.,.+.U ^ ^ ^ ^ U 4 O O O O O O O O O O O O O O O O ",
"O O O O O O O O O O O O O O O O n Q Q C >.7.7.7.7.;.Y ^ ^ ^ ^ ^ f @ O O O O O O O O O O O O O O O O ",
"O O O O O O O O O O O O O O O O d x Y m =.7.6.6.1.' ~ ^ ^ ^ ^ K 5 + O O O O O O O O O O O O O O O O ",
"O O O O O O O O O O O O O O O O O O O 2 >.6.6.1.[ ! ^ ^ ~ U K w O O O O O O O O O O O O O O O O O O ",
"O O O O O O O O O O O O O O O O O O O _ 7.6.>.] ! ~ ~ ~ ^ b w O O O O O O O O O O O O O O O O O O O ",
"O O O O O O O O O O O O O O O O O O 4 $.7.$.G ! ! ~ ~ U f & + O O O O O O O O O O O O O O O O O O O ",
"O O O O O O O O O O O O O O O O O 5 o.2...J ~ ~ ^ ~ K 8 @ + O O O O O O O O O O O O O O O O O O O O ",
"O O O O O O O O O O O O O 7 w > > O.+.R U ~ ~ ! b 8 7 + O O O O O O O O O O O O O O O O O O O O O O ",
"O O O O O O O O O O 5 < c C k 1 / E U ! ! J f 8 * + O O O O O O O O O O O O O O O O O O O O O O O O ",
"O O O O O O O O O 4 K ! W a J U k J b g 4 7 O O O O O O O O O O O O O O O O O O O O O O O O O O O O ",
"O O O O O O O O O e b B i W ~ J ; 7 * O + O O O O O O O O O O O O O O O O O O O O O O O O O O O O O ",
"O O O O O O O O O + @ 9 U ~ ~ z # O O O O O O O O O O O O O O O O O O O O O O O O O O O O O O O O O ",
"O O O O O O O O O O O g ~ ~ U 8 O O O O O O O O O O O O O O O O O O O O O O O O O O O O O O O O O O ",
"O O O O O O O O O O + M ~ U q @ O O O O O O O O O O O O O O O O O O O O O O O O O O O O O O O O O O ",
"O O O O O O O O O O O 2 x 2 % O O O O O O O O O O O O O O O O O O O O O O O O O O O O O O O O O O O ",
"O O O O O O O O O O O @ = O O O O O O O O O O O O O O O O O O O O O O O O O O O O O O O O O O O O O ",
"O O O O O O O O O O O O O O O O O O O O O O O O O O O O O O O O O O O O O O O O O O O O O O O O O O ",
"O O O O O O O O O O O O O O O O O O O O O O O O O O O O O O O O O O O O O O O O O O O O O O O O O O ",
"O O O O O O O O O O O O O O O O O O O O O O O O O O O O O O O O O O O O O O O O O O O O O O O O O O ",
"O O O O O O O O O O O O O O O O O O O O O O O O O O O O O O O O O O O O O O O O O O O O O O O O O O ",
"O O O O O O O O O O O O O O O O O O O O O O O O O O O O O O O O O O O O O O O O O O O O O O O O O O ",
"O O O O O O O O O O O O O O O O O O O O O O O O O O O O O O O O O O O O O O O O O O O O O O O O O O "
};
