/* XPM */
static char *wall1690472097[] = {
/* columns rows colors chars-per-pixel */
"50 50 201 2 ",
"   c #082B0A",
".  c #0A370C",
"X  c #113511",
"o  c #0D450D",
"O  c #0E4A0D",
"+  c #11530F",
"@  c #0F4F10",
"#  c #124D11",
"$  c #0F5610",
"%  c #165813",
"&  c #196416",
"*  c #1D6C1A",
"=  c #1C7317",
"-  c #1F7A1A",
";  c #216617",
":  c #24741C",
">  c #277A1C",
",  c #2F5D38",
"<  c #2A6520",
"1  c #2D7625",
"2  c #367C2A",
"3  c #2C6939",
"4  c #31673D",
"5  c #367638",
"6  c #3A5744",
"7  c #38654D",
"8  c #3C7643",
"9  c #386651",
"0  c #2A7A53",
"q  c #3C7857",
"w  c #357E58",
"e  c #0F7474",
"r  c #147575",
"t  c #1C7675",
"y  c #1F7875",
"u  c #386E63",
"i  c #26736C",
"p  c #3D7363",
"a  c #33756C",
"s  c #397669",
"d  c #3D7B6C",
"f  c #247775",
"g  c #297673",
"h  c #247977",
"j  c #2B7A76",
"k  c #2C7A79",
"l  c #317771",
"z  c #397670",
"x  c #337C76",
"c  c #3C7C72",
"v  c #347D79",
"b  c #3A7E7A",
"n  c #46764B",
"m  c #406C55",
"M  c #447A59",
"N  c #427364",
"B  c #497662",
"V  c #467A66",
"C  c #447B69",
"Z  c #497F73",
"A  c #447D78",
"S  c #26861F",
"D  c #248C1E",
"F  c #268221",
"G  c #2D8A23",
"H  c #338324",
"J  c #34802B",
"K  c #2C9424",
"L  c #34972C",
"P  c #399529",
"I  c #35982A",
"U  c #3B9C2E",
"Y  c #348433",
"T  c #3D8B33",
"R  c #39823E",
"E  c #3A9431",
"W  c #3C9637",
"Q  c #3CA032",
"!  c #42992C",
"~  c #428637",
"^  c #489839",
"/  c #48A42F",
"(  c #45A535",
")  c #4CAD36",
"_  c #43A33C",
"`  c #4CAA3E",
"'  c #50A73C",
"]  c #52AE3A",
"[  c #4DB13B",
"{  c #52B53C",
"}  c #57B63D",
"|  c #3B8540",
" . c #379241",
".. c #3A9650",
"X. c #3A8566",
"o. c #3C926C",
"O. c #378171",
"+. c #3C8475",
"@. c #3C827A",
"#. c #428F47",
"$. c #508846",
"%. c #45944B",
"&. c #49994C",
"*. c #509A46",
"=. c #478955",
"-. c #44835C",
";. c #49965A",
":. c #559857",
">. c #4FA349",
",. c #5CAB45",
"<. c #54A649",
"1. c #4DB143",
"2. c #4FBB44",
"3. c #54B242",
"4. c #55BC43",
"5. c #5BBF45",
"6. c #5BB449",
"7. c #59BA4B",
"8. c #4FA05C",
"9. c #55A957",
"0. c #5EB457",
"q. c #62BC45",
"w. c #65BA48",
"e. c #62AE5A",
"r. c #64B35B",
"t. c #65BD58",
"y. c #76B65B",
"u. c #428764",
"i. c #4A8866",
"p. c #44836A",
"a. c #4B8D6B",
"s. c #578F6E",
"d. c #4C9266",
"f. c #4C9B64",
"g. c #44936B",
"h. c #479568",
"j. c #4B946A",
"k. c #55936B",
"l. c #549C6C",
"z. c #448474",
"x. c #4C8676",
"c. c #448C73",
"v. c #4C8D74",
"b. c #43847A",
"n. c #4A867C",
"m. c #478B79",
"M. c #538C74",
"N. c #53897A",
"B. c #4C9474",
"V. c #4E9A73",
"C. c #4D9179",
"Z. c #5B9574",
"A. c #539B73",
"S. c #5B9D76",
"D. c #54937C",
"F. c #549979",
"G. c #638F7E",
"H. c #659076",
"J. c #48A160",
"K. c #57A268",
"L. c #5CA46C",
"P. c #5EAC6B",
"I. c #5DB260",
"U. c #5AA471",
"Y. c #5BA471",
"T. c #64AC69",
"R. c #69B965",
"E. c #76BA6A",
"W. c #61A276",
"Q. c #65AA78",
"!. c #6BB473",
"~. c #6BB17A",
"^. c #72B678",
"/. c #5EC148",
"(. c #65C44D",
"). c #69C048",
"_. c #6AC759",
"`. c #74C756",
"'. c #77C95A",
"]. c #6EC863",
"[. c #78C967",
"{. c #73C46B",
"}. c #77D164",
"|. c #7CD46A",
" X c #7ED86A",
".X c #86BE7D",
"XX c #81CF5E",
"oX c #86CB69",
"OX c #83D86D",
"+X c #88CB74",
"@X c #86D572",
"#X c #89D977",
"$X c #4C8682",
"%X c #4B8983",
"&X c #558F83",
"*X c #78B582",
"=X c #88B983",
"-X c #85C487",
";X c #98D985",
":X c #9CE287",
">X c #A2E38C",
/* pixels */
"e e e e e e e e e e e e e e e e e e e e e e e e e e e e e e e e e e e e e e e e e e e e e e e e e e ",
"e e e e e e e e e e e e e e e e e e e e e e e e e e e e e e e e e e e e e e e e e e e e e e e e e e ",
"e e e e e e e e e e e e e e e e y G.e e e e e e e e e e e e e e e e e e e e e e e e e e e e e e e e ",
"e e e e e e e e e e e e e e e e s B.e e e e e e e e e e e e e e e e e e e e e e e e e e e e e e e e ",
"e e e e e e e e e e e e e e e e M l.e e e e e e e e e e e e e e e e e e r f N.b e e e e e e e e e e ",
"e e e e e e e e e e e e e e e k J Y.e e e e e e e e e e e k d b.e e e e f i.V r e e e e e e e e e e ",
"e e e e e e e e e e e e e e e m.T *Xe e e e e e e e r e x.n S.r e e e j M 3 j e e e e e e e e e e e ",
"e e e e e e e e e e e e e e e o.G !.e e e e e e e e j d.~ F.e e e e j ;.G c e e e e e e e e e e e e ",
"e e e e e e e e e e e e e e e V.D _.r e e e e e e k 8.W *Xe e e e e a.] l.r e e e e e e e e e e e e ",
"e e e e e e e e e e e e e e e C.D 1.F.e e e e e t K.F r.@.e e e e m.,.t.x e e e e e e e e e e e e e ",
"e e e e e e e e e e e e e e e h Q 1.!.e e e e e c.L _ Y.e e e e j ;.`.S.e e e e e e e e e e e e e e ",
"e e e e e e e e e e e e e e e e g.Q ].@.e e e e f.G 0.@.e e e e a.] +X@.e e e e e e e e e e e e e e ",
"e e e e e e e e e e r e e e e e O.| @X-Xt e e e %.6.P.e e e e h r.'.Z.r e e e e e e e e e e e e e e ",
"e e e e e e e e r e W.Y.O.e e e e @.| :X^.@.e e 5 |.F.e e e e B.).E.x r e e e e e e e e e e e e e e ",
"e e e e e e e e e e c./.{.@.e e e e A *. X{.@.y 2 >X@.e e e e T.'.s.e e e e e e e e e e e e e e e e ",
"e e e e e e e e e e h 6.'.{.@.e e e e A >. X{.+.$.:X@.e e e m.oXy.x e e e e e e e e e e e e e e e e ",
"e e e e e e e e e e e K./.'.^.e e e e e z E.|._.&.OXB.e e e S.XX-.g e e e e e e e e e e e e e e e e ",
"e e e e e e e e e e e k 0.(.(.*Xe e e e e A =X#X2.}.V.e e e ^.^ z.e e e e e e e e e e e e e e e e e ",
"e e e e e e e e e e e r h./.`.[.v e e e e e g ;X|.6.Y.e e e r.* z.e e e e r e e e e e e e e e e e e ",
"e e e e e e e e e e e e h >.5.`.W.e e e e e e z.@X}.L.t e v T 5 e e e e f c d f e e e e e e e e e e ",
"e e e e e e e e e e e e e x >.3._.v e e e e e e d.@X7.m.e $X2 M e e e c.8 B a t e e e e e e e e e e ",
"e e e e e e e e e e e e e e c W 3.F.e e e e e e k.[._.f.e b ' V e e z.R A e r e e e e e e e e e e e ",
"e e e e e e e e e e e e e e e @.| R.t e e e e e l.#X7.9.y $X! 0 e t =.p.e e e e e e e e e e e e e e ",
"e e e e e e e e e e e e e e e e @.:.Z e e e e e Y.@X1.` x %X' d r D.& O.e e e e e e e e e e e e e e ",
"e e e e e e e e e e e e e e e e e @.*.-.r e e e ~.E.L.3.X.%X3.i e U.& d e e e e e e e e e e e e e e ",
"e e e e e e e e e e e e e e e e e e ^.' M.e e e P.^ D.1.=.%Xq.M.e d.= X.e e e e e e e e e e e e e e ",
"e e e e e e e e e e e e e C.e e e e &X'.#.f e e ;.J &XI.;.r y.h.e u.G x e e e e e e e e e e e e e e ",
"e e e e e e e e e e e e h W.e e e e e +X! l e e 0 P m.;.2 k oXd.e l.& x e e e e e e e e e e e e e e ",
"e e e e e e e e e e e e m.J.e e e e e T.G Z.r e p ) D.h.- k T.d.e C.+ a e e e e e e e e e e e e e e ",
"e e e e e e e e e e e e F.R.e e e e e 0 S x.e e C { X.g.P k K.c.e v % C e e e e e e e e e e e e e e ",
"e e e e e e e e e e e e g._.@.e e e e w = i e e p.) X.F.1.b =.O.e e 5 q e e e e e e e e e e e e e e ",
"e e e e e e e e e e e e v.}.Y.e e e e d O O.e e X.K X.F.r.n.2 z.r n.* s e e e e e e e e e e e e e e ",
"e e e e e e e e e e e e k ].{.y e e e k 5 A.l b M - C.Q.K.G.G j r :.E b e e e e e e e e e e e e e e ",
"e e e e e e e e e e e e e A.4.9 k e e e =.9.a x.9 : &X{.u .X> b.M./ T.t e e e e e e e e e e e e e e ",
"e e e e e e e e e e e e e t Y.*  .O.e e -.{ k.C q n U.%.b.oX8 b ,.w.D.r e e e e e e e e e e e e e e ",
"e e e e e e e e e e e e e e e z.W _ l r k.[ e.M -.8 <.N S.w.m d.q.R.e +.e e e e e e e e e e e e e e ",
"e e e e e e e e e e e e e e e e a W %.@.a.U } =.&.^ , v I.* N.*./ a.e S.e e e e e e e e e e e e e e ",
"e e e e e e e e e e e e e e e e e z.Y =XX.G w.! E O u t Y 9 p.! 2 v b L.e e e e e e e e e e e e e e ",
"e e e e e e e e e e e e e e e e e e V +XH.= (.U 1 X b @.% p.M H n e U.f.e e e e e e e e e e e e e e ",
"e e e e e e e e e e e e e e e e r r j [.=X$ { U $ 6 e z.,.j.n ; M k ].A.e e e e e e e e e e e e e e ",
"e e e e e e e e e e e e e e e e e e e 0.>X; { [ # B h 5 q.H.% 1 x.!._.m.e e e e e e e e e e e e e e ",
"e e e e e e e e e e e e e e e e e e e ;.:X,.4.[ o s o.I ] ~ ; :.f.#XP.h e e e e e e e e e e e e e e ",
"e e e e e e e e e e e e e e e e e e e a.[._.(.' X i :.P ] > 1 ; Q R.@.e e e e e e e e e e e e e e e ",
"e e e e e e e e e e e e e e e e e e e a { 3.3.F   N.G > > : : 4 h.y e e e e e e e e e e e e e e e e ",
"e e e e e e e e e e e e e e e e e e e v ( U ( +   S.= + : 3 u t e e e e e e e e e e e e e e e e e e ",
"e e e e e e e e e e e e e e e e e e e e >.I I + . 1 O o 7 j e e e e e e e e e e e e e e e e e e e e ",
"e e e e e e e e e e e e e e e e e e e e :.K D o . & O 7 j e e e e e e e e e e e e e e e e e e e e e ",
"e e e e e e e e e e e e e e e e e e e e ..F % 6 7 Y % s e e e e e e e e e e e e e e e e e e e e e e ",
"e e e e e e e e e e e e e e e e e e e e +.n.s g t @.+.k e e e e e e e e e e e e e e e e e e e e e e ",
"e e e e e e e e e e e e e e e e e e e e e e e r e e r e e e e e e e e e e e e e e e e e e e e e e e "
};
